# xmcd
#
# Track frame offsets: 
#        150
#        14554
#        29071
#        46043
#        59741
#        74903
#        87710
#        98554
#        116756
#        130119
#        147142
#        159353
#
# Disc length: 2332 seconds
#
# Revision: 0
# Processed by: cddbd v1.5.2PL0 Copyright (c) Steve Scherf et al.
# Submitted via: ExactAudioCopy v1.3
#
DISCID=b0091a0c
DTITLE=Tyler Pedersen - Swingin' Beyond
DYEAR=2019
DGENRE=Jazzy Blues
TTITLE0=Swingin' Beyond
TTITLE1=Chasin'
TTITLE2=Whack N' Rolla
TTITLE3=Hammin' It Up
TTITLE4=Tropigala
TTITLE5=Stompus
TTITLE6=My Lament
TTITLE7=The Shake
TTITLE8=Titan Hop
TTITLE9=Celeste
TTITLE10=Extreme People
TTITLE11=Song For Us
EXTD=
EXTT0=
EXTT1=
EXTT2=
EXTT3=
EXTT4=
EXTT5=
EXTT6=
EXTT7=
EXTT8=
EXTT9=
EXTT10=
EXTT11=
PLAYORDER=
